<svg width="94" height="20" viewBox="0 0 94 20" fill="none" xmlns="http://www.w3.org/2000/svg">
<path d="M60.299 18H48.8937V1.70994H52.154V14.7397H60.299V18ZM77.3956 9.92313C77.3956 10.6956 77.2934 11.4416 77.0889 12.161C76.892 12.8729 76.6118 13.5431 76.2483 14.1717C75.8847 14.7927 75.4455 15.3607 74.9305 15.8757C74.4155 16.3907 73.8475 16.8337 73.2265 17.2048C72.6055 17.5683 71.9353 17.8485 71.2158 18.0454C70.4964 18.2499 69.7504 18.3522 68.9779 18.3522C68.2055 18.3522 67.4595 18.2499 66.74 18.0454C66.0282 17.8485 65.3579 17.5683 64.7293 17.2048C64.1083 16.8337 63.5403 16.3907 63.0254 15.8757C62.5104 15.3607 62.0673 14.7927 61.6963 14.1717C61.3327 13.5431 61.0487 12.8729 60.8443 12.161C60.6474 11.4416 60.5489 10.6956 60.5489 9.92313C60.5489 9.15066 60.6474 8.40469 60.8443 7.68523C61.0487 6.96577 61.3327 6.29554 61.6963 5.67453C62.0673 5.05353 62.5104 4.48553 63.0254 3.97055C63.5403 3.45557 64.1083 3.01632 64.7293 2.65281C65.3579 2.28929 66.0282 2.00908 66.74 1.81218C67.4595 1.6077 68.2055 1.50546 68.9779 1.50546C69.7504 1.50546 70.4964 1.6077 71.2158 1.81218C71.9353 2.00908 72.6055 2.28929 73.2265 2.65281C73.8475 3.01632 74.4155 3.45557 74.9305 3.97055C75.4455 4.48553 75.8847 5.05353 76.2483 5.67453C76.6118 6.29554 76.892 6.96577 77.0889 7.68523C77.2934 8.40469 77.3956 9.15066 77.3956 9.92313ZM74.158 9.92313C74.158 9.21124 74.0217 8.54101 73.7491 7.91243C73.4764 7.27628 73.1054 6.72722 72.6358 6.26525C72.1738 5.79571 71.6248 5.42462 70.9886 5.15198C70.3601 4.87934 69.6898 4.74302 68.9779 4.74302C68.2585 4.74302 67.5845 4.87934 66.9559 5.15198C66.3273 5.42462 65.7782 5.79571 65.3087 6.26525C64.8392 6.72722 64.4681 7.27628 64.1954 7.91243C63.9228 8.54101 63.7865 9.21124 63.7865 9.92313C63.7865 10.635 63.9228 11.3052 64.1954 11.9338C64.4681 12.5548 64.8392 13.1001 65.3087 13.5696C65.7782 14.0392 66.3273 14.4103 66.9559 14.6829C67.5845 14.9556 68.2585 15.0919 68.9779 15.0919C69.6898 15.0919 70.3601 14.9556 70.9886 14.6829C71.6248 14.4103 72.1738 14.0392 72.6358 13.5696C73.1054 13.1001 73.4764 12.5548 73.7491 11.9338C74.0217 11.3052 74.158 10.635 74.158 9.92313ZM92.5042 16.3528C91.7469 16.9965 90.9025 17.4926 89.971 17.841C89.0395 18.1818 88.0701 18.3522 87.0629 18.3522C86.2904 18.3522 85.5444 18.2499 84.825 18.0454C84.1131 17.8485 83.4466 17.5683 82.8256 17.2048C82.2046 16.8337 81.6366 16.3945 81.1216 15.8871C80.6067 15.3721 80.1674 14.8041 79.8039 14.1831C79.4404 13.5545 79.1564 12.8805 78.9519 12.161C78.755 11.4416 78.6566 10.6956 78.6566 9.92313C78.6566 9.15066 78.755 8.40848 78.9519 7.69659C79.1564 6.98471 79.4404 6.31826 79.8039 5.69725C80.1674 5.06867 80.6067 4.50068 81.1216 3.99327C81.6366 3.47829 82.2046 3.03904 82.8256 2.67553C83.4466 2.31201 84.1131 2.0318 84.825 1.8349C85.5444 1.63042 86.2904 1.52818 87.0629 1.52818C88.0701 1.52818 89.0395 1.70236 89.971 2.05073C90.9025 2.39153 91.7469 2.88379 92.5042 3.52752L90.8003 6.36749C90.308 5.86765 89.74 5.47763 89.0963 5.19742C88.4526 4.90964 87.7747 4.76574 87.0629 4.76574C86.351 4.76574 85.6807 4.90206 85.0522 5.1747C84.4312 5.44734 83.8859 5.81843 83.4163 6.28797C82.9468 6.74994 82.5757 7.29521 82.3031 7.92379C82.0304 8.5448 81.8941 9.21124 81.8941 9.92313C81.8941 10.6426 82.0304 11.3166 82.3031 11.9452C82.5757 12.5738 82.9468 13.1228 83.4163 13.5924C83.8859 14.0619 84.4312 14.433 85.0522 14.7056C85.6807 14.9783 86.351 15.1146 87.0629 15.1146C87.4718 15.1146 87.8694 15.0654 88.2556 14.9669C88.6419 14.8685 89.0092 14.7321 89.3576 14.558V9.92313H92.5042V16.3528Z" fill="white"/>
<path d="M6.0062 18H2.74592V4.97022H1.12145V1.70994H6.0062V18ZM13.3438 4.97022V11.4908H16.6041C17.0509 11.4908 17.4712 11.4075 17.865 11.2409C18.2588 11.0667 18.6034 10.8319 18.8988 10.5366C19.1941 10.2412 19.4251 9.89662 19.5917 9.50281C19.7659 9.10143 19.853 8.67733 19.853 8.23051C19.853 7.78368 19.7659 7.36337 19.5917 6.96956C19.4251 6.56818 19.1941 6.21981 18.8988 5.92445C18.6034 5.62909 18.2588 5.39811 17.865 5.2315C17.4712 5.05731 17.0509 4.97022 16.6041 4.97022H13.3438ZM13.3438 18H10.0835V1.70994H16.6041C17.2023 1.70994 17.7779 1.78946 18.3308 1.94849C18.8836 2.09996 19.3986 2.31958 19.8757 2.60737C20.3604 2.88758 20.7996 3.22837 21.1934 3.62976C21.5948 4.02356 21.9356 4.46281 22.2158 4.9475C22.5036 5.43219 22.7232 5.95096 22.8747 6.5038C23.0337 7.05665 23.1133 7.63222 23.1133 8.23051C23.1133 8.79093 23.0413 9.3362 22.8974 9.86633C22.7611 10.3965 22.5604 10.9001 22.2954 11.3772C22.0379 11.8543 21.7198 12.2936 21.3411 12.6949C20.9625 13.0963 20.5384 13.4447 20.0688 13.74L21.875 18H18.4103L16.9903 14.717L13.3438 14.7397V18ZM42.356 18H39.1071V6.36749C39.1071 6.14029 39.0616 5.92824 38.9707 5.73133C38.8874 5.53443 38.7701 5.36403 38.6186 5.22014C38.4747 5.06867 38.3043 4.95129 38.1074 4.86798C37.9105 4.78468 37.6984 4.74302 37.4712 4.74302C37.244 4.74302 37.032 4.78468 36.8351 4.86798C36.6382 4.95129 36.464 5.06867 36.3125 5.22014C36.1686 5.36403 36.055 5.53443 35.9717 5.73133C35.8884 5.92824 35.8468 6.14029 35.8468 6.36749V18H32.5865V6.36749C32.5865 6.14029 32.5448 5.92824 32.4615 5.73133C32.3782 5.53443 32.2608 5.36403 32.1094 5.22014C31.9655 5.06867 31.7951 4.95129 31.5982 4.86798C31.4013 4.78468 31.1892 4.74302 30.962 4.74302C30.7348 4.74302 30.5228 4.78468 30.3259 4.86798C30.129 4.95129 29.9548 5.06867 29.8033 5.22014C29.6594 5.36403 29.5458 5.53443 29.4625 5.73133C29.3792 5.92824 29.3376 6.14029 29.3376 6.36749V18H26.0773V6.36749C26.0773 5.69347 26.2022 5.0611 26.4522 4.47039C26.7097 3.8721 27.058 3.35333 27.4973 2.91408C27.9441 2.46726 28.4629 2.11889 29.0536 1.86897C29.6519 1.61148 30.288 1.48274 30.962 1.48274C31.5679 1.48274 32.151 1.59255 32.7115 1.81218C33.2719 2.02423 33.7755 2.33473 34.2223 2.74369C34.6691 2.33473 35.169 2.02423 35.7218 1.81218C36.2822 1.59255 36.8654 1.48274 37.4712 1.48274C38.1453 1.48274 38.7776 1.61148 39.3683 1.86897C39.9666 2.11889 40.4854 2.46726 40.9246 2.91408C41.3715 3.35333 41.7198 3.8721 41.9698 4.47039C42.2272 5.0611 42.356 5.69347 42.356 6.36749V18Z" fill="white"/>
</svg>
