<svg width="109" height="26" viewBox="0 0 109 26" fill="none" xmlns="http://www.w3.org/2000/svg">
<path d="M14.3481 23.9348C13.2607 23.9348 12.284 23.6831 11.4181 23.1796C10.5522 22.6762 9.8675 21.9915 9.36405 21.1256C8.88075 20.2395 8.63909 19.2125 8.63909 18.0445V7.53258C8.63909 6.98886 8.5082 6.49549 8.24641 6.05246C7.98462 5.60943 7.63221 5.25702 7.18918 4.99523C6.74615 4.73344 6.26284 4.60254 5.73926 4.60254C5.21568 4.60254 4.73237 4.73344 4.28934 4.99523C3.86645 5.25702 3.52411 5.60943 3.26232 6.05246C3.02066 6.49549 2.89984 6.98886 2.89984 7.53258V23.5723H0V7.92527C0 6.81769 0.241653 5.82088 0.724959 4.93481C1.20827 4.04875 1.88288 3.354 2.7488 2.85056C3.61473 2.32698 4.61154 2.06519 5.73926 2.06519C6.88711 2.06519 7.894 2.32698 8.75992 2.85056C9.62584 3.354 10.3005 4.04875 10.7838 4.93481C11.2671 5.82088 11.5087 6.81769 11.5087 7.92527V18.4372C11.5087 19.001 11.6396 19.5045 11.9014 19.9475C12.1632 20.3704 12.5055 20.7127 12.9284 20.9745C13.3715 21.2363 13.8447 21.3672 14.3481 21.3672C14.8516 21.3672 15.3148 21.2363 15.7377 20.9745C16.1605 20.7127 16.4928 20.3704 16.7345 19.9475C16.9963 19.5045 17.1272 19.001 17.1272 18.4372V7.92527C17.1272 6.81769 17.3688 5.82088 17.8521 4.93481C18.3556 4.04875 19.0402 3.354 19.9062 2.85056C20.7721 2.32698 21.779 2.06519 22.9268 2.06519C24.0545 2.06519 25.0514 2.32698 25.9173 2.85056C26.7832 3.354 27.4578 4.04875 27.9411 4.93481C28.4244 5.82088 28.6661 6.81769 28.6661 7.92527V23.5723H25.7663V7.53258C25.7663 6.98886 25.6354 6.49549 25.3736 6.05246C25.1319 5.60943 24.7896 5.25702 24.3465 4.99523C23.9236 4.73344 23.4504 4.60254 22.9268 4.60254C22.3831 4.60254 21.8897 4.73344 21.4467 4.99523C21.0238 5.25702 20.6815 5.60943 20.4197 6.05246C20.1579 6.49549 20.027 6.98886 20.027 7.53258V18.0445C20.027 19.2125 19.7753 20.2395 19.2718 21.1256C18.7885 21.9915 18.1139 22.6762 17.248 23.1796C16.4022 23.6831 15.4356 23.9348 14.3481 23.9348Z" fill="#111111"/>
<g clip-path="url(#clip0_78_109)">
<path d="M54.3438 22.469L53.2818 23.5309L33.2817 3.53086L34.3437 2.4689L54.3438 22.469Z" fill="#111111"/>
<path d="M34.2549 23.4424L33.1929 22.3804L40.6266 14.9468L41.6885 16.0087L34.2549 23.4424Z" fill="#111111"/>
<path d="M46.8223 10.876L45.7603 9.81402L53.194 2.38036L54.2559 3.44232L46.8223 10.876Z" fill="#111111"/>
</g>
<path d="M59.4658 23.5724V2.42773L68.7393 2.42773C70.0683 2.42773 71.2766 2.71973 72.364 3.30373C73.4515 3.86758 74.3174 4.67309 74.9618 5.72026C75.6062 6.74728 75.9284 7.95555 75.9284 9.34505C75.9284 10.7547 75.566 12.0032 74.841 13.0907C74.1362 14.158 73.1796 14.9534 71.9714 15.477L74.2369 20.0684C74.398 20.3906 74.5691 20.6323 74.7504 20.7934C74.9517 20.9343 75.2337 21.0048 75.5962 21.0048H77.1065V23.5724H75.1431C74.3577 23.5724 73.6629 23.371 73.0588 22.9682C72.4748 22.5655 71.9915 22.0218 71.6089 21.3371L69.0715 16.1717C68.8701 16.1919 68.6486 16.212 68.407 16.2322C68.1855 16.2322 67.9539 16.2322 67.7122 16.2322H62.3657V23.5724H59.4658ZM62.3657 13.6646L68.3466 13.6646C69.2125 13.6646 69.9979 13.4934 70.7027 13.1511C71.4276 12.8087 71.9915 12.3154 72.3943 11.671C72.8171 11.0266 73.0286 10.2513 73.0286 9.34505C73.0286 8.41872 72.8171 7.63334 72.3943 6.98893C71.9714 6.34453 71.4075 5.85115 70.7027 5.50881C69.9979 5.16647 69.2226 4.9953 68.3768 4.9953L62.3657 4.9953V13.6646Z" fill="#111111"/>
<path d="M94.6245 2.06522C95.7119 2.06522 96.6886 2.31694 97.5546 2.82038C98.4205 3.32383 99.1052 4.00851 99.6086 4.87443C100.092 5.7605 100.334 6.78752 100.334 7.95551L100.334 18.4674C100.334 19.0111 100.464 19.5045 100.726 19.9475C100.988 20.3906 101.34 20.743 101.783 21.0048C102.227 21.2666 102.71 21.3975 103.233 21.3975C103.757 21.3975 104.24 21.2666 104.683 21.0048C105.106 20.743 105.449 20.3906 105.71 19.9475C105.952 19.5045 106.073 19.0111 106.073 18.4674L106.073 2.4277L108.973 2.4277L108.973 18.0747C108.973 19.1823 108.731 20.1791 108.248 21.0652C107.764 21.9512 107.09 22.646 106.224 23.1494C105.358 23.673 104.361 23.9348 103.233 23.9348C102.086 23.9348 101.079 23.673 100.213 23.1494C99.3468 22.646 98.6722 21.9512 98.1889 21.0652C97.7056 20.1791 97.4639 19.1823 97.4639 18.0747L97.4639 7.56282C97.4639 6.99897 97.333 6.49552 97.0712 6.05249C96.8095 5.6296 96.4671 5.28726 96.0442 5.02547C95.6012 4.76368 95.128 4.63278 94.6245 4.63278C94.1211 4.63278 93.6579 4.76367 93.235 5.02547C92.8121 5.28726 92.4798 5.6296 92.2382 6.05249C91.9764 6.49552 91.8455 6.99897 91.8455 7.56282L91.8455 18.0747C91.8455 19.1823 91.6038 20.1791 91.1205 21.0652C90.6171 21.9512 89.9324 22.646 89.0665 23.1494C88.2006 23.673 87.1937 23.9348 86.0458 23.9348C84.9181 23.9348 83.9213 23.673 83.0554 23.1494C82.1894 22.646 81.5148 21.9512 81.0315 21.0652C80.5482 20.1791 80.3066 19.1823 80.3066 18.0747L80.3066 2.4277L83.2064 2.4277L83.2064 18.4674C83.2064 19.0111 83.3373 19.5045 83.5991 19.9475C83.8407 20.3906 84.1831 20.743 84.6261 21.0048C85.049 21.2666 85.5222 21.3975 86.0458 21.3975C86.5895 21.3975 87.0829 21.2666 87.526 21.0048C87.9488 20.743 88.2912 20.3906 88.553 19.9475C88.8148 19.5045 88.9457 19.0111 88.9457 18.4674L88.9457 7.95551C88.9457 6.78752 89.1974 5.76049 89.7008 4.87443C90.1841 4.00851 90.8588 3.32383 91.7247 2.82038C92.5705 2.31694 93.5371 2.06522 94.6245 2.06522Z" fill="#111111"/>
<defs>
<clipPath id="clip0_78_109">
<rect width="26" height="26" fill="white" transform="translate(31.0664)"/>
</clipPath>
</defs>
</svg>
