<svg width="20" height="20" viewBox="0 0 20 20" fill="none" xmlns="http://www.w3.org/2000/svg">
<path d="M9.18896 13.9671C9.18896 13.5193 9.55198 13.1562 9.99978 13.1562C10.4476 13.1562 10.8106 13.5193 10.8106 13.9671V19.1891C10.8106 19.6369 10.4476 19.9999 9.99978 19.9999C9.55198 19.9999 9.18896 19.6369 9.18896 19.1891V13.9671Z" fill="#111111"/>
<path d="M9.18896 0.810811C9.18896 0.363012 9.55198 0 9.99978 0C10.4476 0 10.8106 0.363012 10.8106 0.810811V6.03288C10.8106 6.48068 10.4476 6.84369 9.99978 6.84369C9.55198 6.84369 9.18896 6.48068 9.18896 6.03288V0.810811Z" fill="#111111"/>
<path d="M19.1892 9.18921C19.637 9.18921 20 9.55222 20 10C20 10.4478 19.637 10.8108 19.1892 10.8108L0.810809 10.8108C0.363011 10.8108 -2.7287e-06 10.4478 -2.69095e-06 10C-2.6532e-06 9.55222 0.363012 9.18921 0.810809 9.18921L19.1892 9.18921Z" fill="#111111"/>
</svg>
